<?xml version="1.0" encoding="UTF-8"?>
<svg id="Layer_1" data-name="Layer 1" xmlns="http://www.w3.org/2000/svg" viewBox="0 0 386.3 446.06">
  <defs>
    <style>
      .cls-1 {
        fill: #881ef9;
      }

      .cls-2 {
        fill: #ededf4;
      }
    </style>
  </defs>
  <path class="cls-1" d="M193.15,0L0,111.52v223.03l193.15,111.51,193.15-111.51V111.52L193.15,0ZM383.3,332.82l-190.15,109.78L3,332.82V113.25L193.15,3.47l190.15,109.78v219.57Z"/>
  <path class="cls-2" d="M193.15,3.47L3,113.25v219.57l190.15,109.78,190.15-109.78V113.25L193.15,3.47ZM374.96,328l-181.81,104.97L11.34,328V118.07L193.15,13.1l181.81,104.97v209.93Z"/>
  <polygon class="cls-1" points="374.96 118.07 374.96 328 193.15 432.97 11.34 328 11.34 118.07 193.15 13.1 374.96 118.07"/>
  <path class="cls-2" d="M60.33,327.6v-49.67h16.18c2.62,0,5,.63,7.13,1.9,2.13,1.27,3.81,2.99,5.06,5.16,1.24,2.18,1.86,4.61,1.86,7.31,0,2.51-.53,4.76-1.58,6.77-1.05,2.01-2.48,3.66-4.27,4.95-1.8,1.29-3.81,2.1-6.03,2.43l12.2,21.14h-4.44l-12.13-20.9h-10.15v20.9h-3.83ZM64.16,302.88h12.1c1.92,0,3.67-.47,5.25-1.4,1.58-.93,2.85-2.21,3.79-3.81.95-1.61,1.42-3.44,1.42-5.5s-.47-3.86-1.42-5.48c-.95-1.62-2.21-2.9-3.79-3.83-1.59-.93-3.34-1.4-5.25-1.4h-12.1v21.43ZM127.2,327.6v-3.83h-23.48v-45.84h-3.83v49.67h27.32ZM161.08,292.13h3.83v35.47h-3.83l-.11-7.27c-1.21,2.46-2.93,4.44-5.16,5.94-2.23,1.5-4.91,2.25-8.04,2.25-2.58,0-5-.49-7.26-1.47-2.26-.98-4.25-2.33-5.98-4.04-1.73-1.72-3.07-3.7-4.04-5.96-.97-2.26-1.46-4.69-1.46-7.29s.48-4.99,1.44-7.24c.96-2.25,2.29-4.23,3.99-5.94,1.7-1.72,3.68-3.05,5.92-4.01,2.25-.96,4.65-1.44,7.2-1.44,3.15,0,5.87.76,8.18,2.29,2.31,1.53,4.11,3.52,5.41,5.98l-.11-7.27ZM147.74,324.76c2.72,0,5.06-.67,7.01-2,1.95-1.33,3.45-3.14,4.49-5.41,1.04-2.27,1.56-4.77,1.56-7.48s-.53-5.32-1.58-7.58c-1.05-2.26-2.56-4.06-4.51-5.39-1.95-1.34-4.27-2-6.97-2s-5.23.67-7.47,2.02c-2.23,1.35-4.02,3.16-5.34,5.43-1.32,2.27-1.98,4.78-1.98,7.52s.68,5.31,2.04,7.55c1.36,2.25,3.16,4.03,5.41,5.36,2.25,1.33,4.69,1.99,7.34,1.99M202.98,274.39h3.83v53.21h-3.83v-7.31c-1.23,2.48-2.98,4.48-5.25,5.98-2.27,1.5-4.98,2.25-8.12,2.25-2.58,0-4.99-.48-7.24-1.45-2.25-.97-4.23-2.31-5.94-4.03-1.71-1.72-3.06-3.7-4.03-5.94s-1.45-4.66-1.45-7.24.48-5,1.45-7.26c.97-2.26,2.31-4.24,4.03-5.96,1.71-1.72,3.7-3.06,5.94-4.03,2.25-.97,4.66-1.46,7.24-1.46,3.15,0,5.85.75,8.12,2.25,2.27,1.5,4.02,3.48,5.25,5.94v-24.98ZM189.64,324.76c2.72,0,5.06-.67,7.01-2,1.95-1.33,3.45-3.14,4.49-5.41,1.04-2.27,1.56-4.77,1.56-7.48s-.53-5.32-1.58-7.58c-1.05-2.26-2.56-4.06-4.51-5.39-1.95-1.34-4.27-2-6.97-2s-5.2.67-7.43,2.02c-2.23,1.35-4.02,3.16-5.36,5.43-1.34,2.27-2,4.78-2,7.52s.68,5.31,2.04,7.55c1.36,2.25,3.16,4.03,5.41,5.36,2.25,1.33,4.69,1.99,7.34,1.99M218.33,285.42c-.66,0-1.22-.22-1.68-.66-.46-.44-.69-.99-.69-1.65s.23-1.21.69-1.65c.46-.44,1.02-.66,1.68-.66s1.19.22,1.65.66c.46.44.69.99.69,1.65s-.23,1.21-.67,1.65c-.45.44-1.01.66-1.67.66M216.38,292.13h3.83v35.47h-3.83v-35.47ZM245.4,328.52c-3.26,0-6.24-.84-8.92-2.52-2.68-1.68-4.82-3.93-6.42-6.76-1.6-2.83-2.39-5.95-2.39-9.38,0-2.6.46-5.03,1.38-7.29.92-2.26,2.19-4.24,3.81-5.96,1.62-1.72,3.51-3.06,5.66-4.03,2.15-.97,4.44-1.46,6.88-1.46,2.58,0,4.96.5,7.15,1.51,2.19,1.01,4.07,2.42,5.66,4.24,1.58,1.82,2.8,3.97,3.65,6.44.85,2.47,1.24,5.17,1.17,8.11h-31.36c.26,2.53,1.02,4.8,2.29,6.79,1.26,2,2.89,3.57,4.88,4.72,1.99,1.15,4.17,1.73,6.56,1.76,2.62,0,4.99-.69,7.1-2.08,2.1-1.38,3.79-3.28,5.07-5.69l3.87.89c-1.42,3.14-3.56,5.72-6.42,7.71-2.86,2-6.07,3-9.61,3M231.57,308.16h27.6c-.14-2.43-.85-4.68-2.11-6.72-1.27-2.04-2.92-3.68-4.95-4.91-2.04-1.23-4.27-1.85-6.71-1.85s-4.66.6-6.67,1.81c-2.01,1.21-3.65,2.83-4.91,4.88-1.26,2.05-2.02,4.31-2.25,6.79M281.59,328.28c2.27.05,4.41-.34,6.4-1.17,2-.83,3.62-2.01,4.86-3.55,1.24-1.54,1.86-3.34,1.86-5.43.02-1.99-.55-3.61-1.72-4.86-1.17-1.25-2.71-2.3-4.61-3.14-1.9-.84-3.96-1.6-6.16-2.29-1.89-.62-3.56-1.15-5-1.61-1.44-.46-2.57-1.07-3.37-1.83-.8-.76-1.2-1.84-1.2-3.26s.44-2.63,1.31-3.64c.87-1,2.03-1.77,3.46-2.3,1.43-.53,2.97-.79,4.63-.76,1.32.02,2.64.25,3.94.67,1.3.42,2.46,1.03,3.48,1.81,1.02.78,1.76,1.72,2.23,2.8l3.12-1.84c-.97-2.08-2.64-3.76-5.02-5.04-2.38-1.28-5.02-1.92-7.93-1.92-2.25,0-4.35.42-6.31,1.26-1.96.84-3.55,2.03-4.75,3.56-1.21,1.54-1.81,3.35-1.81,5.43s.52,3.63,1.56,4.86c1.04,1.23,2.51,2.24,4.42,3.03,1.9.79,4.16,1.57,6.76,2.32,1.51.45,2.98.93,4.42,1.44,1.43.51,2.61,1.17,3.53,1.99.92.82,1.38,1.93,1.38,3.35s-.44,2.52-1.31,3.51c-.88.99-2.01,1.76-3.41,2.31s-2.89.82-4.47.82c-1.4,0-2.82-.24-4.27-.73-1.45-.48-2.76-1.15-3.9-2-1.15-.85-1.92-1.81-2.32-2.87l-3.37,1.45c.55,1.44,1.51,2.73,2.91,3.87,1.4,1.13,3.03,2.04,4.91,2.71,1.88.67,3.8,1.02,5.76,1.05M320.15,324.05v-15.82h15.82v-3.83h-15.82v-15.82h-3.83v15.82h-15.82v3.83h15.82v15.82h3.83Z"/>
  <path class="cls-2" d="M264.52,155.3c0,24.88-18.62,45.46-42.66,48.57v-23.86c11.02-2.81,19.19-12.82,19.19-24.71,0-14.05-11.44-25.49-25.49-25.49h-37.25v7.48h-23.44v-30.93c14.2,0,50.15-.04,63.85,0,25.52,1.65,45.79,23.01,45.79,48.94M242.37,221.21c-9.84,0-18.37-5.61-22.6-13.78h-24.93c5.28,21.38,24.58,37.25,47.53,37.25h22.15v-23.47h-22.15ZM178.32,206.74c-12.98-2.68-23.25-12.95-25.93-25.93h-37.92v23.47h40.41v40.4h23.44v-37.94M178.32,180.81v-40.38h-23.44v35.16c.8,15.79,13.76,28.42,29.69,28.69,1.83-.08,32.47.16,34.16-.09v-23.37h-40.41Z"/>
</svg>